<svg width="235" height="235" viewBox="0 0 235 235" fill="none" xmlns="http://www.w3.org/2000/svg">
<path d="M140.273 129C131.731 129 124.636 132.791 120.5 138.925C116.364 132.799 109.269 129 100.727 129C87.6456 129 77 140.365 77 154.326C77 178.497 116.561 206.262 118.246 207.433L120.5 209L122.754 207.433C124.439 206.262 164 178.497 164 154.326C164 140.357 153.354 129 140.273 129ZM120.5 199.321C108.795 190.694 84.9091 169.886 84.9091 154.326C84.9091 144.726 92.0035 136.915 100.727 136.915C110.044 136.915 116.712 143.84 116.712 152.949H124.621V150.543H124.542C125.356 142.431 131.589 136.915 140.265 136.915C148.989 136.915 156.083 144.726 156.083 154.326C156.083 169.879 132.205 190.694 120.5 199.321Z" fill="black"/>
<path d="M210.098 97.9085H55.4779L212.458 58.4677C222.788 56.1079 229.554 44.6908 226.617 34.4977L224.678 27.1344C222.72 17.9498 217.246 10.1556 209.285 5.19123C201.325 0.226859 191.895 -1.22231 182.789 1.03957L25.8679 40.5489C7.93937 45.0629 -3.28188 63.3831 0.859993 81.5369L9.28083 113.771C9.29062 113.82 9.34937 113.849 9.36895 113.898V190.929C9.36895 215.222 29.1383 234.992 53.4315 234.992H190.515C214.808 234.992 234.577 215.222 234.577 190.929V122.388C234.577 108.885 223.601 97.9085 210.098 97.9085ZM78.0379 37.5135L122.218 26.3902L87.8296 79.6862L43.679 90.7802L77.9498 37.7289C77.989 37.6604 77.9987 37.5821 78.0379 37.5135ZM181.379 11.4971L147.852 64.6071L101.744 76.1906L136.132 22.8848L181.379 11.4971ZM215.16 29.3962L217.158 36.9848C218.617 42.0862 215.239 47.785 210.069 48.9698L161.6 61.1506L193.805 10.1556C197.408 10.5473 200.933 11.5264 204.106 13.5044C209.795 17.0489 213.701 22.6106 215.16 29.3962ZM28.2571 50.0371L64.1827 40.9994L29.8629 94.1191C29.8629 94.1191 29.8335 94.2171 29.8042 94.2562L15.2831 97.9085H15.244L10.3579 79.2162C7.4302 66.3598 15.4594 53.2683 28.2473 50.0469L28.2571 50.0371ZM224.786 190.929C224.786 209.827 209.413 225.2 190.515 225.2H53.4315C34.5335 225.2 19.1606 209.827 19.1606 190.929V107.7H210.098C218.196 107.7 224.786 114.29 224.786 122.388V190.929Z" fill="black"/>
</svg>
