<svg width="235" height="236" viewBox="0 0 235 236" fill="none" xmlns="http://www.w3.org/2000/svg">
<path d="M224.895 77.0384L133.735 5.61797C124.168 -1.87266 110.822 -1.87266 101.265 5.61797L10.1148 77.0384C3.68167 82.0713 0 89.6403 0 97.8065V235.017H235V97.8065C235 89.6403 231.318 82.0713 224.895 77.0384ZM225.208 225.225H9.79167V97.8065C9.79167 92.6659 12.1025 87.9071 16.1465 84.7542L107.307 13.324C113.309 8.62401 121.691 8.62401 127.693 13.324L218.863 84.7444C222.897 87.8973 225.208 92.6561 225.208 97.7967V225.225Z" fill="black"/>
<mask id="path-2-inside-1_37_20" fill="white">
<path d="M80 141C80 138.239 82.2386 136 85 136H150C152.761 136 155 138.239 155 141V235H80V141Z"/>
</mask>
<path d="M80 141C80 138.239 82.2386 136 85 136H150C152.761 136 155 138.239 155 141V235H80V141Z" stroke="black" stroke-width="22" mask="url(#path-2-inside-1_37_20)"/>
</svg>
